<svg xmlns="http://www.w3.org/2000/svg" viewBox="0 0 348 90" enable-background="new 0 0 348 90"><style type="text/css">.st0{fill:#4A5258;} .st1{fill:#F2D028;} .st2{fill:#5BC34D;} .st3{fill:#2A9C64;}</style><path d="M59.1 18.6h8.1v40.9c0 4 1 7.1 3.1 9.2 2.1 2.2 5.1 3.2 9 3.2h11v7.5h-9.6c-7.3 0-12.7-1.8-16.2-5.3-3.6-3.5-5.4-8.8-5.4-16V18.6zM94.5 25.9c0-1.2.4-2.3 1.3-3.2.9-.9 2-1.3 3.2-1.3 1.3 0 2.3.4 3.2 1.3.9.9 1.3 1.9 1.3 3.2 0 1.3-.4 2.4-1.3 3.3-.9.9-1.9 1.3-3.2 1.3-1.2 0-2.3-.5-3.2-1.4-.8-.8-1.3-1.9-1.3-3.2zm.8 53.5V37.8h7.5v41.7h-7.5zM115.6 37.8l11.9 32.8 11.9-32.8h7.7l-13.9 37.5c-.7 1.8-1.4 3-2.4 3.8-.9.8-2 1.2-3.4 1.2-1.3 0-2.4-.4-3.3-1.2-.9-.8-1.7-2.1-2.3-3.8L108 37.8h7.6zM191.7 61c-1 5.9-3.5 10.7-7.2 14.1-3.8 3.5-8.4 5.2-13.8 5.2-1.8 0-3.7-.2-5.5-.7-1.8-.5-3.5-1.2-5.1-2.2-3.3-2-5.9-4.7-7.8-8-1.8-3.3-2.8-6.9-2.8-10.8 0-2.9.5-5.6 1.6-8.2 1.1-2.6 2.6-5 4.6-7.1 2-2.1 4.3-3.6 6.9-4.7 2.6-1.1 5.3-1.6 8.1-1.6 4.2 0 8 1.1 11.3 3.3 3.3 2.2 6 5.5 8.1 9.7l-27.3 15.1-3.1-5.7L180 48.1c-1.2-1.4-2.6-2.4-4.2-3.1-1.6-.7-3.3-1.1-5.1-1.1-3.7 0-6.9 1.4-9.5 4.2-2.6 2.8-3.8 6.2-3.8 10.3 0 4.1 1.3 7.5 3.9 10.3 2.6 2.8 5.7 4.2 9.4 4.2 3.5 0 6.5-1.2 8.9-3.5 2.4-2.3 3.9-5.5 4.5-9.6l7.6 1.2zM199.2 79.4V42.6c0-4 .2-7.1.7-9.4.5-2.3 1.2-4.3 2.3-6.1 1.8-3.1 4.3-5.5 7.2-7.2 3-1.7 6.3-2.5 10-2.5 5.5 0 10.2 1.9 14.2 5.8 3.9 3.9 5.9 8.5 5.9 14 0 5.6-1.9 10.3-5.8 14-3.9 3.7-8.7 5.6-14.6 5.6h-8.6v-7.7h7.6c4 0 7.2-1.1 9.6-3.3 2.4-2.2 3.6-5.1 3.6-8.8 0-3.4-1.1-6.2-3.4-8.5s-5.1-3.4-8.5-3.4c-3.7 0-6.6 1.2-8.7 3.7-2.1 2.5-3.2 5.8-3.2 10.1v40.5h-8.3zM246.5 79.4V18.6h7.5v60.9h-7.5zM296.1 79.4V58.7c0-4.4-1.2-7.9-3.7-10.6-2.5-2.7-5.7-4.1-9.6-4.1-3.9 0-7.1 1.3-9.6 4s-3.8 6.1-3.8 10.3c0 4.3 1.3 7.8 3.9 10.6 2.6 2.7 5.9 4.1 9.9 4.1 1.8 0 3.6-.3 5.3-.9 1.7-.6 3.4-1.6 5.2-2.9v8c-1.7 1-3.5 1.7-5.4 2.1-1.9.5-3.9.7-5.9.7-2 0-4-.3-5.9-.9-2-.6-3.7-1.5-5.3-2.6-3-2.1-5.3-4.7-6.9-7.8-1.6-3.1-2.4-6.6-2.4-10.3 0-6.2 2-11.4 5.9-15.4 3.9-4.1 8.9-6.1 15-6.1 4 0 7.6 1 11 3 3.3 2 5.9 4.8 7.6 8.3.8 1.6 1.4 3.3 1.8 5.2.4 1.9.5 4.7.5 8.4v17.5h-7.6zM312.6 79.4V56.7c0-6.1 1.6-10.9 4.8-14.4 3.2-3.5 7.5-5.3 12.9-5.3s9.7 1.8 12.9 5.3c3.2 3.5 4.8 8.3 4.8 14.4v22.7h-7.4V55.3c0-3.3-1-6-2.9-8-1.9-2.1-4.4-3.1-7.4-3.1s-5.5 1-7.4 3.1c-1.9 2.1-2.9 4.7-2.9 8v24.1h-7.4z" class="st0"/><path d="M58.2 89.6c-35-3.4-37.6-13.6-40.1-35v-.2s0-10.3 0-31.1c0-2.4-3.4-4.8-9.1-4.8-5.4 0-9.1 2.4-9.1 4.8 0 20.7 0 30.9 0 30.9 0 .1 0 .2 0 .2 0 12.4 1.8 29.3 20.2 33.7 9.3 2.3 18.2 1.3 38.1 1.5z" class="st1"/><path d="M64.3 89.6c-15.6-6.4-33-18-33-35v-.2s0-19.8 0-40.6c0-2.4-3.4-4.8-9.1-4.8-5.4 0-9.1 2.4-9.1 4.8 0 20.7 0 40.5 0 40.5 0 .1 0 .2 0 .2 0 13.8 1.9 29.9 20.3 33.5 11.1 2.1 13 1.6 30.9 1.6z" class="st2"/><path d="M64.8 89.6c-15.8-6.5-19.3-16.8-19.3-35v-.2s0-28.8 0-49.6c0-2.4-2.3-4.8-8-4.8-5.4 0-9.1 2.4-9.1 4.8 0 20.7 0 49.5 0 49.5 0 .1 0 .2 0 .2 0 12.4 1.9 29.7 20.3 33.4 11.1 2.2 17.4 1.7 16.1 1.7z" class="st3"/></svg>